<svg xmlns="http://www.w3.org/2000/svg" viewBox="0 0 512 512">
  <defs>
    <linearGradient id="grad" x1="0%" y1="0%" x2="100%" y2="100%">
      <stop offset="0%" style="stop-color:#6366f1;stop-opacity:1" />
      <stop offset="100%" style="stop-color:#4338ca;stop-opacity:1" />
    </linearGradient>
  </defs>
  <!-- Fondo circular principal -->
  <circle cx="256" cy="256" r="240" fill="url(#grad)" />
  
  <!-- Icono de Balón Estilizado -->
  <circle cx="256" cy="256" r="100" fill="white" />
  <path d="M256 156l30 60 65 10-45 45 15 65-65-35-65 35 15-65-45-45 65-10z" fill="#4338ca" />
  
  <!-- Flechas de Intercambio (Swap) -->
  <path d="M140 160c40-60 120-80 180-50l-20 40M372 352c-40 60-120 80-180 50l20-40" 
        fill="none" stroke="white" stroke-width="35" stroke-linecap="round" />
  <path d="M320 150l20-50-50-20M192 362l-20 50 50 20" fill="white" />
</svg>
